<svg width="31" height="30" viewBox="0 0 31 30" fill="none" xmlns="http://www.w3.org/2000/svg">
<path fill-rule="evenodd" clip-rule="evenodd" d="M8.17005 0C6.18092 0 4.27327 0.790176 2.86674 2.1967C1.46022 3.60322 0.670044 5.51088 0.670044 7.5V22.5C0.670044 24.4891 1.46022 26.3968 2.86674 27.8033C4.27327 29.2098 6.18092 30 8.17005 30H23.17C25.1592 30 27.0668 29.2098 28.4734 27.8033C29.8799 26.3968 30.6701 24.4891 30.6701 22.5V7.5C30.6701 5.51088 29.8799 3.60322 28.4734 2.1967C27.0668 0.790176 25.1592 0 23.17 0H8.17005ZM21.265 13.026C21.3998 12.8822 21.5049 12.7133 21.5743 12.5289C21.6438 12.3445 21.6762 12.1482 21.6698 11.9512C21.6634 11.7543 21.6183 11.5605 21.537 11.381C21.4557 11.2015 21.3398 11.0397 21.196 10.905C21.0523 10.7703 20.8833 10.6652 20.6989 10.5957C20.5145 10.5263 20.3182 10.4938 20.1213 10.5002C19.9243 10.5066 19.7305 10.5518 19.551 10.6331C19.3715 10.7144 19.2098 10.8302 19.075 10.974L14.4505 15.909L12.166 13.8795C11.8667 13.6307 11.4824 13.5079 11.0943 13.5372C10.7062 13.5665 10.3446 13.7455 10.086 14.0364C9.82744 14.3273 9.69206 14.7074 9.70848 15.0963C9.72491 15.4852 9.89185 15.8524 10.174 16.1205L13.549 19.1205C13.8411 19.3799 14.2228 19.5152 14.613 19.4975C15.0032 19.4799 15.3711 19.3107 15.6385 19.026L21.2635 13.026H21.265Z" fill="url(#paint0_linear_122_2)"/>
<defs>
<linearGradient id="paint0_linear_122_2" x1="1.90971" y1="21.1111" x2="21.6482" y2="21.028" gradientUnits="userSpaceOnUse">
<stop stop-color="#37C871"/>
<stop offset="1" stop-color="#5FE394"/>
</linearGradient>
</defs>
</svg>
